#Comment line ignore any data following # character 
#Hierarchical Translation and Rotation (.htr) file 
[Header]	
#Header keywords are followed by a single value 
FileType HTR		#Single word string
DataType HTRS		#Translation followed by rotation and scale data
FileVersion 1		#integer
NumSegments 84		#integer
NumFrames 2		#integer
DataFrameRate 30		#integer, data frame rate in this file
EulerRotationOrder ZYX
CalibrationUnits mm
RotationUnits Degrees
GlobalAxisofGravity Y
BoneLengthAxis Y
ScaleFactor 1.00
[SegmentNames&Hierarchy]
#CHILD	PARENT
MASTER GLOBAL
root MASTER
chest root
L_mid_tent01 root
R_mid_tent01 root
spine01 root
Bip01_Neck chest
L_humerus chest
R_humerus chest
weapon_bone chest
Bip01_Head Bip01_Neck
eye_left_bone Bip01_Head
eye_right_bone Bip01_Head
L_forearm L_humerus
L_front_hand L_forearm
L_weapon_bone L_forearm
L_front_hand01_01 L_front_hand
L_front_hand02_01 L_front_hand
L_front_hand03_01 L_front_hand
L_front_hand01_02 L_front_hand01_01
L_front_hand02_02 L_front_hand02_01
L_front_hand03_02 L_front_hand03_01
R_forearm R_humerus
R_front_hand R_forearm
R_weapon_bone R_forearm
R_front_hand01_01 R_front_hand
R_front_hand02_01 R_front_hand
R_front_hand03_01 R_front_hand
R_front_hand01_02 R_front_hand01_01
R_front_hand02_02 R_front_hand02_01
R_front_hand03_02 R_front_hand03_01
null_rope01_connect L_mid_tent01
Rope1_Seg01 null_rope01_connect
Rope1_Seg02 Rope1_Seg01
Rope1_Seg03 Rope1_Seg02
Rope1_Seg04 Rope1_Seg03
Rope1_Seg05 Rope1_Seg04
Rope1_Seg06 Rope1_Seg05
Rope1_Seg07 Rope1_Seg06
Rope1_Seg09 Rope1_Seg07
L_mid_hand01 Rope1_Seg09
L_mid_hand02 Rope1_Seg09
L_mid_hand03 Rope1_Seg09
null_rope02_connect R_mid_tent01
Rope2_Seg01 null_rope02_connect
Rope2_Seg02 Rope2_Seg01
Rope2_Seg03 Rope2_Seg02
Rope2_Seg04 Rope2_Seg03
Rope2_Seg05 Rope2_Seg04
Rope2_Seg06 Rope2_Seg05
Rope2_Seg07 Rope2_Seg06
Rope2_Seg09 Rope2_Seg07
R_mid_hand01 Rope2_Seg09
R_mid_hand02 Rope2_Seg09
R_mid_hand03 Rope2_Seg09
spine02 spine01
spine03 spine02
pelvis spine03
null_rope03_connect pelvis
null_rope04_connect pelvis
Rope3_Seg01 null_rope03_connect
Rope3_Seg02 Rope3_Seg01
Rope3_Seg03 Rope3_Seg02
Rope3_Seg04 Rope3_Seg03
Rope3_Seg05 Rope3_Seg04
Rope3_Seg06 Rope3_Seg05
Rope3_Seg07 Rope3_Seg06
Rope3_Seg08 Rope3_Seg07
Rope3_Seg09 Rope3_Seg08
R_rear_hand01 Rope3_Seg09
R_rear_hand02 Rope3_Seg09
R_rear_hand03 Rope3_Seg09
Rope4_Seg01 null_rope04_connect
Rope4_Seg02 Rope4_Seg01
Rope4_Seg03 Rope4_Seg02
Rope4_Seg04 Rope4_Seg03
Rope4_Seg05 Rope4_Seg04
Rope4_Seg06 Rope4_Seg05
Rope4_Seg07 Rope4_Seg06
Rope4_Seg08 Rope4_Seg07
Rope4_Seg09 Rope4_Seg08
L_rear_hand01 Rope4_Seg09
L_rear_hand02 Rope4_Seg09
L_rear_hand03 Rope4_Seg09
[BasePosition]
#SegmentName Tx, Ty, Tz, Rx, Ry, Rz, BoneLength
MASTER 0.000000 0.000000 0.000000 -90.000000 0.000000 0.000000 10.000000 
root 0.000000 0.000000 0.000000 0.000000 0.000000 0.000000 10.000000 
chest 0.000000 0.000000 0.000000 0.000000 0.000000 0.000000 10.000000 
L_mid_tent01 0.000000 0.000000 0.000000 0.000000 0.000000 0.000000 10.000000 
R_mid_tent01 0.000000 0.000000 0.000000 0.000000 0.000000 0.000000 10.000000 
spine01 0.000000 0.000000 0.000000 0.000000 0.000000 0.000000 10.000000 
Bip01_Neck 0.000000 0.000000 0.000000 0.000000 0.000000 0.000000 10.000000 
L_humerus 0.000000 0.000000 0.000000 0.000000 0.000000 0.000000 10.000000 
R_humerus 0.000000 0.000000 0.000000 0.000000 0.000000 0.000000 10.000000 
weapon_bone 0.000000 0.000000 0.000000 0.000000 0.000000 0.000000 10.000000 
Bip01_Head 0.000000 0.000000 0.000000 0.000000 0.000000 0.000000 10.000000 
eye_left_bone 0.000000 0.000000 0.000000 0.000000 0.000000 0.000000 10.000000 
eye_right_bone 0.000000 0.000000 0.000000 0.000000 0.000000 0.000000 10.000000 
L_forearm 0.000000 0.000000 0.000000 0.000000 0.000000 0.000000 10.000000 
L_front_hand 0.000000 0.000000 0.000000 0.000000 0.000000 0.000000 10.000000 
L_weapon_bone 0.000000 0.000000 0.000000 0.000000 0.000000 0.000000 10.000000 
L_front_hand01_01 0.000000 0.000000 0.000000 0.000000 0.000000 0.000000 10.000000 
L_front_hand02_01 0.000000 0.000000 0.000000 0.000000 0.000000 0.000000 10.000000 
L_front_hand03_01 0.000000 0.000000 0.000000 0.000000 0.000000 0.000000 10.000000 
L_front_hand01_02 0.000000 0.000000 0.000000 0.000000 0.000000 0.000000 10.000000 
L_front_hand02_02 0.000000 0.000000 0.000000 0.000000 0.000000 0.000000 10.000000 
L_front_hand03_02 0.000000 0.000000 0.000000 0.000000 0.000000 0.000000 10.000000 
R_forearm 0.000000 0.000000 0.000000 0.000000 0.000000 0.000000 10.000000 
R_front_hand 0.000000 0.000000 0.000000 0.000000 0.000000 0.000000 10.000000 
R_weapon_bone 0.000000 0.000000 0.000000 0.000000 0.000000 0.000000 10.000000 
R_front_hand01_01 0.000000 0.000000 0.000000 0.000000 0.000000 0.000000 10.000000 
R_front_hand02_01 0.000000 0.000000 0.000000 0.000000 0.000000 0.000000 10.000000 
R_front_hand03_01 0.000000 0.000000 0.000000 0.000000 0.000000 0.000000 10.000000 
R_front_hand01_02 0.000000 0.000000 0.000000 0.000000 0.000000 0.000000 10.000000 
R_front_hand02_02 0.000000 0.000000 0.000000 0.000000 0.000000 0.000000 10.000000 
R_front_hand03_02 0.000000 0.000000 0.000000 0.000000 0.000000 0.000000 10.000000 
null_rope01_connect 0.000000 0.000000 0.000000 0.000000 0.000000 0.000000 10.000000 
Rope1_Seg01 0.000000 0.000000 0.000000 0.000000 0.000000 0.000000 10.000000 
Rope1_Seg02 0.000000 0.000000 0.000000 0.000000 0.000000 0.000000 10.000000 
Rope1_Seg03 0.000000 0.000000 0.000000 0.000000 0.000000 0.000000 10.000000 
Rope1_Seg04 0.000000 0.000000 0.000000 0.000000 0.000000 0.000000 10.000000 
Rope1_Seg05 0.000000 0.000000 0.000000 0.000000 0.000000 0.000000 10.000000 
Rope1_Seg06 0.000000 0.000000 0.000000 0.000000 0.000000 0.000000 10.000000 
Rope1_Seg07 0.000000 0.000000 0.000000 0.000000 0.000000 0.000000 10.000000 
Rope1_Seg09 0.000000 0.000000 0.000000 0.000000 0.000000 0.000000 10.000000 
L_mid_hand01 0.000000 0.000000 0.000000 0.000000 0.000000 0.000000 10.000000 
L_mid_hand02 0.000000 0.000000 0.000000 0.000000 0.000000 0.000000 10.000000 
L_mid_hand03 0.000000 0.000000 0.000000 0.000000 0.000000 0.000000 10.000000 
null_rope02_connect 0.000000 0.000000 0.000000 0.000000 0.000000 0.000000 10.000000 
Rope2_Seg01 0.000000 0.000000 0.000000 0.000000 0.000000 0.000000 10.000000 
Rope2_Seg02 0.000000 0.000000 0.000000 0.000000 0.000000 0.000000 10.000000 
Rope2_Seg03 0.000000 0.000000 0.000000 0.000000 0.000000 0.000000 10.000000 
Rope2_Seg04 0.000000 0.000000 0.000000 0.000000 0.000000 0.000000 10.000000 
Rope2_Seg05 0.000000 0.000000 0.000000 0.000000 0.000000 0.000000 10.000000 
Rope2_Seg06 0.000000 0.000000 0.000000 0.000000 0.000000 0.000000 10.000000 
Rope2_Seg07 0.000000 0.000000 0.000000 0.000000 0.000000 0.000000 10.000000 
Rope2_Seg09 0.000000 0.000000 0.000000 0.000000 0.000000 0.000000 10.000000 
R_mid_hand01 0.000000 0.000000 0.000000 0.000000 0.000000 0.000000 10.000000 
R_mid_hand02 0.000000 0.000000 0.000000 0.000000 0.000000 0.000000 10.000000 
R_mid_hand03 0.000000 0.000000 0.000000 0.000000 0.000000 0.000000 10.000000 
spine02 0.000000 0.000000 0.000000 0.000000 0.000000 0.000000 10.000000 
spine03 0.000000 0.000000 0.000000 0.000000 0.000000 0.000000 10.000000 
pelvis 0.000000 0.000000 0.000000 0.000000 0.000000 0.000000 10.000000 
null_rope03_connect 0.000000 0.000000 0.000000 0.000000 0.000000 0.000000 10.000000 
null_rope04_connect 0.000000 0.000000 0.000000 0.000000 0.000000 0.000000 10.000000 
Rope3_Seg01 0.000000 0.000000 0.000000 0.000000 0.000000 0.000000 10.000000 
Rope3_Seg02 0.000000 0.000000 0.000000 0.000000 0.000000 0.000000 10.000000 
Rope3_Seg03 0.000000 0.000000 0.000000 0.000000 0.000000 0.000000 10.000000 
Rope3_Seg04 0.000000 0.000000 0.000000 0.000000 0.000000 0.000000 10.000000 
Rope3_Seg05 0.000000 0.000000 0.000000 0.000000 0.000000 0.000000 10.000000 
Rope3_Seg06 0.000000 0.000000 0.000000 0.000000 0.000000 0.000000 10.000000 
Rope3_Seg07 0.000000 0.000000 0.000000 0.000000 0.000000 0.000000 10.000000 
Rope3_Seg08 0.000000 0.000000 0.000000 0.000000 0.000000 0.000000 10.000000 
Rope3_Seg09 0.000000 0.000000 0.000000 0.000000 0.000000 0.000000 10.000000 
R_rear_hand01 0.000000 0.000000 0.000000 0.000000 0.000000 0.000000 10.000000 
R_rear_hand02 0.000000 0.000000 0.000000 0.000000 0.000000 0.000000 10.000000 
R_rear_hand03 0.000000 0.000000 0.000000 0.000000 0.000000 0.000000 10.000000 
Rope4_Seg01 0.000000 0.000000 0.000000 0.000000 0.000000 0.000000 10.000000 
Rope4_Seg02 0.000000 0.000000 0.000000 0.000000 0.000000 0.000000 10.000000 
Rope4_Seg03 0.000000 0.000000 0.000000 0.000000 0.000000 0.000000 10.000000 
Rope4_Seg04 0.000000 0.000000 0.000000 0.000000 0.000000 0.000000 10.000000 
Rope4_Seg05 0.000000 0.000000 0.000000 0.000000 0.000000 0.000000 10.000000 
Rope4_Seg06 0.000000 0.000000 0.000000 0.000000 0.000000 0.000000 10.000000 
Rope4_Seg07 0.000000 0.000000 0.000000 0.000000 0.000000 0.000000 10.000000 
Rope4_Seg08 0.000000 0.000000 0.000000 0.000000 0.000000 0.000000 10.000000 
Rope4_Seg09 0.000000 0.000000 0.000000 0.000000 0.000000 0.000000 10.000000 
L_rear_hand01 0.000000 0.000000 0.000000 0.000000 0.000000 0.000000 10.000000 
L_rear_hand02 0.000000 0.000000 0.000000 0.000000 0.000000 0.000000 10.000000 
L_rear_hand03 0.000000 0.000000 0.000000 0.000000 0.000000 0.000000 10.000000 
#Beginning of Data. Separated by tabs
#Fr	Tx	Ty	Tz	Rx	Ry	Rz	SF
[MASTER]
23 0.000000 0.000000 0.000000 0.001660 0.001660 0.001660 0.000000
24 0.000000 0.000000 0.000000 0.001660 0.001660 0.001660 0.000000
[root]
23 -16.502304 6.495172 1450.374023 -86.723145 -19.086210 -92.680069 1450.482422
24 -16.502304 8.052087 1449.259277 -89.233414 -15.472754 -91.135681 1449.375610
[chest]
23 -84.512650 -34.090519 0.000000 4.269573 -0.139354 -178.828964 91.129311
24 -84.512650 -34.090519 0.000000 2.146918 0.083260 177.580826 91.129311
[L_mid_tent01]
23 27.299135 22.178988 -249.918640 -9.019809 32.116318 51.096809 252.381607
24 27.299129 22.179026 -249.918655 -14.741903 26.270821 37.214355 252.381638
[R_mid_tent01]
23 23.228794 24.509907 226.238495 -169.382217 -22.194555 31.803797 228.744751
24 23.228794 24.509907 226.238495 -167.903519 -20.840078 29.158365 228.744751
[spine01]
23 -0.361383 -0.195265 0.000000 0.001940 0.001322 21.422129 0.410763
24 -0.361383 -0.195265 0.000000 0.001942 0.001319 21.632050 0.410763
[Bip01_Neck]
23 165.484543 71.581718 0.000119 176.643677 -1.657967 43.431911 180.302734
24 165.484543 71.581718 0.000119 176.643677 -1.657967 43.431911 180.302734
[L_humerus]
23 -13.983130 -135.272980 -120.471481 9.724799 81.024933 100.224342 181.680161
24 -13.983130 -135.272980 -120.471481 1.262990 77.224266 91.628082 181.680161
[R_humerus]
23 -13.983309 -135.273102 125.287651 42.334442 -82.276787 53.045971 184.909012
24 -13.983309 -135.273102 125.287651 34.788197 -78.418945 60.693192 184.909012
[weapon_bone]
23 235.964890 -300.705902 0.000000 0.000000 -89.951546 -128.212341 382.234833
24 235.964890 -300.705902 0.000000 0.000000 -89.951546 -128.212341 382.234833
[Bip01_Head]
23 213.444153 185.715561 11.776941 4.962490 2.797846 -43.898743 283.173767
24 213.444138 185.715561 11.776941 4.962490 2.797846 -43.898743 283.173767
[eye_left_bone]
23 -24.626970 125.451866 -64.772606 0.000000 -90.000000 -99.840431 143.318359
24 -24.626970 125.451866 -64.772606 0.000000 -90.000000 -99.840431 143.318359
[eye_right_bone]
23 -24.626970 125.451866 64.327362 0.000000 -89.965736 80.156380 143.117676
24 -24.626970 125.451866 64.327362 0.000000 -89.965736 80.156380 143.117676
[L_forearm]
23 322.776093 0.000000 -0.000119 0.000361 0.002319 -72.291786 322.776093
24 322.776093 0.000000 -0.000119 0.000109 0.002345 -84.666748 322.776093
[L_front_hand]
23 241.149185 -0.042021 -3.300071 31.508821 -1.833293 -27.424950 241.171753
24 241.149185 -0.042021 -3.300071 31.508821 -1.833293 -27.424950 241.171753
[L_weapon_bone]
23 156.183838 0.000000 0.000000 0.000014 0.000007 0.000001 156.183838
24 156.183838 0.000000 0.000000 0.000014 0.000007 0.000001 156.183838
[L_front_hand01_01]
23 86.095154 20.947098 -0.655860 -0.366594 -0.477154 75.385574 88.609184
24 86.095154 20.947098 -0.655860 -0.366594 -0.477154 75.385574 88.609184
[L_front_hand02_01]
23 86.935165 -11.437475 24.513514 154.399796 -59.883835 -61.369587 91.046425
24 86.935165 -11.437475 24.513514 154.399796 -59.883835 -61.369587 91.046425
[L_front_hand03_01]
23 86.637497 -14.123976 -20.424902 -153.913849 58.118122 -62.702866 90.126129
24 86.637497 -14.123976 -20.424902 -153.913849 58.118122 -62.702866 90.126129
[L_front_hand01_02]
23 71.020905 -0.000179 0.000030 0.000334 -0.002323 -106.379684 71.020905
24 71.020905 -0.000179 0.000030 0.000334 -0.002323 -106.379684 71.020905
[L_front_hand02_02]
23 71.020927 -0.000119 0.000060 0.000334 -0.002323 -106.379684 71.020927
24 71.020927 -0.000119 0.000060 0.000334 -0.002323 -106.379684 71.020927
[L_front_hand03_02]
23 71.020905 -0.000060 0.000060 0.000334 -0.002323 -106.379684 71.020905
24 71.020905 -0.000060 0.000060 0.000334 -0.002323 -106.379684 71.020905
[R_forearm]
23 322.776428 -0.000060 0.000030 0.200502 -0.073452 -71.144821 322.776428
24 322.776428 -0.000060 0.000030 0.211791 -0.026969 -83.993904 322.776428
[R_front_hand]
23 238.847015 -0.006795 2.210259 -8.879457 -10.642941 -26.315098 238.857239
24 238.847015 -0.006795 2.210259 -8.879457 -10.642941 -26.315098 238.857239
[R_weapon_bone]
23 155.664093 0.002503 -0.000030 0.003487 0.001180 -90.988930 155.664078
24 155.664093 0.002503 -0.000030 0.003487 0.001180 -90.988930 155.664078
[R_front_hand01_01]
23 87.624611 14.231146 22.918642 -154.633484 -59.950607 61.746033 91.683487
24 87.624611 14.231146 22.918642 -154.633484 -59.950619 61.746037 91.683487
[R_front_hand02_01]
23 89.356956 14.367283 -19.491137 154.602661 58.302849 63.744389 92.579636
24 89.356956 14.367283 -19.491137 154.602661 58.302849 63.744389 92.579636
[R_front_hand03_01]
23 87.286232 -22.307278 -0.143439 0.162155 -0.423168 -75.767921 90.091743
24 87.286232 -22.307278 -0.143439 0.162155 -0.423168 -75.767921 90.091743
[R_front_hand01_02]
23 71.020905 0.000060 0.000119 0.002323 -0.000334 106.381714 71.020905
24 71.020905 0.000060 0.000119 0.002323 -0.000334 106.381714 71.020905
[R_front_hand02_02]
23 71.020844 -0.000030 -0.000119 0.002323 -0.000334 106.381714 71.020836
24 71.020844 -0.000030 -0.000119 0.002323 -0.000334 106.381714 71.020836
[R_front_hand03_02]
23 71.020905 0.000000 0.000030 0.002323 -0.000334 106.381714 71.020905
24 71.020905 0.000000 0.000030 0.002323 -0.000334 106.381714 71.020905
[null_rope01_connect]
23 328.732483 0.000000 -0.000238 -133.395065 -57.885117 -172.107437 328.732483
24 328.732483 0.000000 -0.000238 -140.386917 -60.127453 -155.121658 328.732483
[Rope1_Seg01]
23 -0.000005 -0.000009 0.000018 15.480233 6.970772 -107.685143 0.000021
24 -0.000003 -0.000006 0.000012 31.210983 0.701163 -112.268158 0.000014
[Rope1_Seg02]
23 139.999863 -0.000179 0.000000 3.496716 -6.527032 4.353041 139.999863
24 139.999863 -0.000179 0.000000 -4.969442 -0.498704 4.563987 139.999863
[Rope1_Seg03]
23 139.999924 0.000060 -0.000060 2.602935 -7.094182 4.842935 139.999924
24 139.999924 0.000060 -0.000060 -2.621373 -1.768070 4.441576 139.999924
[Rope1_Seg04]
23 139.999924 -0.000060 -0.000119 3.476928 -10.699488 5.861151 139.999924
24 139.999924 -0.000060 -0.000119 -1.730222 -2.433660 4.610991 139.999924
[Rope1_Seg05]
23 139.999832 0.000119 -0.000060 -3.386236 2.997362 2.551380 139.999832
24 139.999832 0.000119 -0.000060 -6.875287 4.682452 2.904157 139.999832
[Rope1_Seg06]
23 139.999954 0.000119 -0.000060 -7.930730 10.236830 -0.012993 139.999954
24 139.999954 0.000119 -0.000060 -5.307191 3.850185 1.720539 139.999954
[Rope1_Seg07]
23 139.999985 0.000060 0.000000 -4.330637 4.146183 1.073061 139.999985
24 139.999985 0.000060 0.000000 -2.456818 1.364180 1.248806 139.999985
[Rope1_Seg09]
23 121.602913 0.000119 -0.000089 -89.793175 -1.359789 0.847147 121.602913
24 121.602913 0.000119 -0.000089 -89.793175 -1.359789 0.847147 121.602913
[L_mid_hand01]
23 103.859421 1.038730 8.195221 116.522400 -56.273506 -23.071619 104.187431
24 103.859421 1.038730 8.195221 119.055557 -59.298035 -26.066509 104.187431
[L_mid_hand02]
23 105.572853 -4.139662 -10.864139 -157.484573 39.487514 -56.304867 106.211075
24 105.572853 -4.139662 -10.864139 -160.167114 40.723133 -60.466225 106.211075
[L_mid_hand03]
23 104.641464 17.579376 -3.913581 -10.068325 15.918207 60.978371 106.179977
24 104.641464 17.579376 -3.913581 -9.090181 16.486181 64.488472 106.179977
[null_rope02_connect]
23 328.732849 0.000179 -0.000119 -136.284134 64.588448 -32.296631 328.732849
24 328.732849 0.000179 -0.000119 -137.413849 66.152634 -31.754097 328.732849
[Rope2_Seg01]
23 0.000095 0.000153 0.000067 45.249489 -12.632978 -54.692024 0.000192
24 0.000095 0.000153 0.000070 42.144554 -7.113517 -51.140610 0.000193
[Rope2_Seg02]
23 139.999741 -0.000060 -0.000119 13.181203 -3.566577 -8.032047 139.999756
24 139.999741 -0.000060 -0.000119 18.271362 -4.792286 -8.707115 139.999756
[Rope2_Seg03]
23 140.000107 0.000030 0.000000 7.014487 -1.343682 -4.586227 140.000107
24 140.000107 0.000030 0.000000 8.669680 -2.359351 -4.409828 140.000107
[Rope2_Seg04]
23 139.999802 0.000000 -0.000060 8.561396 -6.339528 -4.244027 139.999802
24 139.999802 0.000000 -0.000060 9.389166 -8.038279 -3.569889 139.999802
[Rope2_Seg05]
23 139.999985 -0.000060 0.000119 5.507198 -9.320755 -1.704486 139.999985
24 139.999985 -0.000060 0.000119 5.012862 -10.487758 -0.578001 139.999985
[Rope2_Seg06]
23 139.999893 -0.000030 -0.000119 1.983458 -4.565655 -0.542750 139.999893
24 139.999893 -0.000030 -0.000119 1.674154 -4.976062 0.018033 139.999893
[Rope2_Seg07]
23 139.999893 0.000060 -0.000060 1.007948 -2.671684 -0.298887 139.999893
24 139.999893 0.000060 -0.000060 0.826968 -2.897151 0.035171 139.999893
[Rope2_Seg09]
23 121.338966 0.000089 -0.000060 33.793236 -1.359788 -0.847141 121.338966
24 121.338966 0.000089 -0.000060 33.793236 -1.359788 -0.847141 121.338966
[R_mid_hand01]
23 104.680779 11.144459 -10.335981 -35.915802 33.394672 39.963589 105.778534
24 104.680779 11.144459 -10.335981 -34.395386 34.968529 42.666183 105.778534
[R_mid_hand02]
23 104.070427 2.443552 8.231699 69.545166 -44.771034 15.251748 104.424065
24 104.070427 2.443552 8.231699 68.534218 -47.330906 16.661512 104.424065
[R_mid_hand03]
23 106.028137 -11.221827 -5.996406 -170.436981 12.655029 -49.730141 106.788818
24 106.028137 -11.221827 -5.996406 -171.057129 13.096079 -52.505196 106.788818
[spine02]
23 129.756927 0.001550 0.000119 0.187170 -4.089260 -10.456612 129.756927
24 129.756927 0.001550 0.000119 0.245137 -4.072676 -11.286599 129.756927
[spine03]
23 78.614044 0.082074 -4.898996 1.796797 3.942369 14.948051 78.766579
24 78.614052 0.081927 -4.898999 1.829778 3.899777 15.462799 78.766586
[pelvis]
23 169.435242 0.051022 0.000000 -0.043363 -0.158121 10.993070 169.435257
24 169.435242 0.051022 0.000000 -0.051297 -0.171948 12.051872 169.435257
[null_rope03_connect]
23 -1.257226 -2.466202 137.391083 -20.275684 -85.700714 92.570366 137.418976
24 -1.257226 -2.466202 137.391083 -25.593954 -88.066193 93.248276 137.418976
[null_rope04_connect]
23 -1.259640 -2.480268 -137.844437 -20.275684 -85.700714 92.570366 137.872513
24 -1.259640 -2.480268 -137.844437 -25.593954 -88.066193 93.248276 137.872513
[Rope3_Seg01]
23 -0.000030 0.000000 -0.000134 -133.538559 21.294607 -83.350052 0.000138
24 -0.000029 0.000000 -0.000140 -134.885849 27.789665 -83.453026 0.000143
[Rope3_Seg02]
23 139.999924 -0.000119 0.000060 0.672313 2.176523 -3.775404 139.999924
24 139.999924 -0.000119 0.000060 0.703674 1.809419 -3.489816 139.999924
[Rope3_Seg03]
23 139.999924 -0.000119 0.000119 0.485223 1.881502 -3.398945 139.999924
24 139.999924 -0.000119 0.000119 0.563847 1.710878 -3.442955 139.999924
[Rope3_Seg04]
23 139.999924 0.000119 0.000000 0.381270 3.112768 -6.081267 139.999924
24 139.999924 0.000119 0.000000 0.504949 2.807371 -6.960902 139.999924
[Rope3_Seg05]
23 139.999924 -0.000238 0.000060 0.154779 0.179876 -0.126687 139.999924
24 139.999924 -0.000238 0.000060 0.224745 0.864710 -1.243025 139.999924
[Rope3_Seg06]
23 139.999893 -0.000119 -0.000060 -0.289282 -2.821027 6.175980 139.999893
24 139.999893 -0.000119 -0.000060 -0.294766 -1.887797 7.153721 139.999893
[Rope3_Seg07]
23 139.999771 0.000060 -0.000119 -0.643676 -2.998881 6.473409 139.999771
24 139.999771 0.000060 -0.000119 -0.541846 -1.756443 6.364295 139.999771
[Rope3_Seg08]
23 139.999985 -0.000060 0.000000 -0.039653 -1.298501 2.772144 139.999985
24 139.999985 -0.000060 0.000000 -0.016160 -0.730127 2.796407 139.999985
[Rope3_Seg09]
23 90.185997 -0.000179 -0.000060 89.793228 -1.359877 -0.847183 90.185997
24 90.185997 -0.000179 -0.000060 89.793228 -1.359877 -0.847183 90.185997
[R_rear_hand01]
23 103.366196 -6.073594 -10.757982 -166.511459 20.844782 -45.419308 104.101845
24 103.366196 -6.073594 -10.757982 -167.736008 21.565811 -48.800869 104.101845
[R_rear_hand02]
23 100.509819 12.039542 -7.992327 -28.715420 27.221792 42.882896 101.543350
24 100.509819 12.039542 -7.992327 -27.197781 28.737717 46.115421 101.543350
[R_rear_hand03]
23 101.539970 5.215704 5.435467 81.812386 -45.906319 9.761458 101.819031
24 101.539970 5.215704 5.435467 81.295578 -49.108307 10.466796 101.819031
[Rope4_Seg01]
23 -0.000030 0.000000 -0.000134 45.914722 13.225005 -116.471542 0.000138
24 -0.000029 0.000000 -0.000140 43.584953 15.868169 -122.132935 0.000143
[Rope4_Seg02]
23 139.999985 0.000060 0.000119 0.161043 6.863560 2.657300 139.999985
24 139.999985 0.000060 0.000119 0.231298 8.235163 3.395541 139.999985
[Rope4_Seg03]
23 139.999924 0.000000 -0.000238 0.228631 6.827318 2.641414 139.999924
24 139.999924 0.000000 -0.000238 0.353649 8.995507 3.716134 139.999924
[Rope4_Seg04]
23 139.999985 0.000000 0.000119 0.776917 12.249689 4.577894 139.999985
24 139.999985 0.000000 0.000119 1.053085 15.159875 6.766568 139.999985
[Rope4_Seg05]
23 139.999802 -0.000060 -0.000119 0.279445 4.707461 1.819934 139.999802
24 139.999802 -0.000060 -0.000119 0.486202 7.504527 3.002745 139.999802
[Rope4_Seg06]
23 139.999924 0.000000 0.000060 -0.022757 -8.987436 -2.908934 139.999924
24 139.999924 0.000000 0.000060 0.657688 -8.454086 -4.441934 139.999924
[Rope4_Seg07]
23 139.999802 0.000000 0.000000 0.395662 -12.027149 -4.069046 139.999802
24 139.999802 0.000000 0.000000 0.805654 -11.465992 -5.723217 139.999802
[Rope4_Seg08]
23 139.999924 0.000000 0.000119 -1.374160 -4.771936 -1.554942 139.999924
24 139.999924 0.000000 0.000119 -1.350531 -4.170106 -2.151747 139.999924
[Rope4_Seg09]
23 90.185791 0.000060 0.000060 -135.617828 2.228885 0.850567 90.185791
24 90.185791 0.000060 0.000060 -135.617828 2.228885 0.850567 90.185791
[L_rear_hand01]
23 101.696655 -8.392275 -7.654577 -21.250179 -33.196442 122.367813 102.329041
24 101.696655 -8.392275 -7.654577 -19.499575 -34.171803 119.209053 102.329041
[L_rear_hand02]
23 102.726799 -1.568258 5.773216 78.649605 59.766773 166.297333 102.900848
24 102.726799 -1.568258 5.773216 77.604706 62.517124 165.103577 102.900848
[L_rear_hand03]
23 104.552910 9.721220 -10.420293 -172.167084 -23.462944 -119.660828 105.519653
24 104.552910 9.721220 -10.420293 -173.384872 -23.818932 -116.619843 105.519653
